<mxfile host="app.diagrams.net" modified="2022-11-29T10:04:29.901Z" agent="5.0 (Windows NT 10.0; Win64; x64) AppleWebKit/537.36 (KHTML, like Gecko) Chrome/107.0.0.0 Safari/537.36 Edg/107.0.1418.56" version="20.6.0" etag="Kp6oG2f6j9B02DZYs1MH" type="github">
  <diagram id="pDeUd91LaXmuF7cPFV2_" name="Page-1">
    <mxGraphModel dx="2023" dy="677" grid="1" gridSize="10" guides="1" tooltips="1" connect="1" arrows="1" fold="1" page="1" pageScale="1" pageWidth="850" pageHeight="1100" math="0" shadow="0">
      <root>
        <mxCell id="0" />
        <mxCell id="1" parent="0" />
        <mxCell id="jgYm5BDfNLHtk2KfV3pF-10" value="" style="edgeStyle=orthogonalEdgeStyle;rounded=0;orthogonalLoop=1;jettySize=auto;html=1;" edge="1" parent="1" source="jgYm5BDfNLHtk2KfV3pF-8" target="jgYm5BDfNLHtk2KfV3pF-9">
          <mxGeometry relative="1" as="geometry" />
        </mxCell>
        <mxCell id="jgYm5BDfNLHtk2KfV3pF-8" value="เริ่มต้นเกม" style="ellipse;whiteSpace=wrap;html=1;" vertex="1" parent="1">
          <mxGeometry x="340" y="10" width="120" height="80" as="geometry" />
        </mxCell>
        <mxCell id="jgYm5BDfNLHtk2KfV3pF-39" style="edgeStyle=orthogonalEdgeStyle;rounded=0;orthogonalLoop=1;jettySize=auto;html=1;entryX=0.5;entryY=0;entryDx=0;entryDy=0;" edge="1" parent="1" source="jgYm5BDfNLHtk2KfV3pF-9" target="jgYm5BDfNLHtk2KfV3pF-38">
          <mxGeometry relative="1" as="geometry" />
        </mxCell>
        <mxCell id="jgYm5BDfNLHtk2KfV3pF-9" value="ทายตัวเลข 1-10" style="whiteSpace=wrap;html=1;" vertex="1" parent="1">
          <mxGeometry x="340" y="110" width="120" height="60" as="geometry" />
        </mxCell>
        <mxCell id="jgYm5BDfNLHtk2KfV3pF-22" value="ใช่" style="edgeStyle=orthogonalEdgeStyle;rounded=0;orthogonalLoop=1;jettySize=auto;html=1;" edge="1" parent="1" source="jgYm5BDfNLHtk2KfV3pF-19" target="jgYm5BDfNLHtk2KfV3pF-21">
          <mxGeometry relative="1" as="geometry" />
        </mxCell>
        <mxCell id="jgYm5BDfNLHtk2KfV3pF-28" value="ไม่" style="edgeStyle=orthogonalEdgeStyle;rounded=0;orthogonalLoop=1;jettySize=auto;html=1;" edge="1" parent="1" source="jgYm5BDfNLHtk2KfV3pF-19" target="jgYm5BDfNLHtk2KfV3pF-27">
          <mxGeometry relative="1" as="geometry" />
        </mxCell>
        <mxCell id="jgYm5BDfNLHtk2KfV3pF-19" value="ใช่ 1-10หรือไม่" style="rhombus;whiteSpace=wrap;html=1;" vertex="1" parent="1">
          <mxGeometry x="350" y="340" width="100" height="60" as="geometry" />
        </mxCell>
        <mxCell id="jgYm5BDfNLHtk2KfV3pF-37" value="ไม่" style="edgeStyle=orthogonalEdgeStyle;rounded=0;orthogonalLoop=1;jettySize=auto;html=1;" edge="1" parent="1" source="jgYm5BDfNLHtk2KfV3pF-21" target="jgYm5BDfNLHtk2KfV3pF-36">
          <mxGeometry relative="1" as="geometry" />
        </mxCell>
        <mxCell id="jgYm5BDfNLHtk2KfV3pF-42" value="ใช่" style="edgeStyle=orthogonalEdgeStyle;rounded=0;orthogonalLoop=1;jettySize=auto;html=1;" edge="1" parent="1" source="jgYm5BDfNLHtk2KfV3pF-21" target="jgYm5BDfNLHtk2KfV3pF-41">
          <mxGeometry relative="1" as="geometry" />
        </mxCell>
        <mxCell id="jgYm5BDfNLHtk2KfV3pF-21" value="ทายถูกหรือไม่" style="rhombus;whiteSpace=wrap;html=1;" vertex="1" parent="1">
          <mxGeometry x="360" y="420" width="80" height="110" as="geometry" />
        </mxCell>
        <mxCell id="jgYm5BDfNLHtk2KfV3pF-34" value="" style="edgeStyle=orthogonalEdgeStyle;rounded=0;orthogonalLoop=1;jettySize=auto;html=1;" edge="1" parent="1" source="jgYm5BDfNLHtk2KfV3pF-27" target="jgYm5BDfNLHtk2KfV3pF-32">
          <mxGeometry relative="1" as="geometry">
            <Array as="points">
              <mxPoint x="550" y="250" />
              <mxPoint x="400" y="250" />
            </Array>
          </mxGeometry>
        </mxCell>
        <mxCell id="jgYm5BDfNLHtk2KfV3pF-27" value="" style="shape=waypoint;sketch=0;size=6;pointerEvents=1;points=[];fillColor=default;resizable=0;rotatable=0;perimeter=centerPerimeter;snapToPoint=1;" vertex="1" parent="1">
          <mxGeometry x="530" y="240" width="40" height="40" as="geometry" />
        </mxCell>
        <mxCell id="jgYm5BDfNLHtk2KfV3pF-35" value="" style="edgeStyle=orthogonalEdgeStyle;rounded=0;orthogonalLoop=1;jettySize=auto;html=1;" edge="1" parent="1" source="jgYm5BDfNLHtk2KfV3pF-32" target="jgYm5BDfNLHtk2KfV3pF-19">
          <mxGeometry relative="1" as="geometry" />
        </mxCell>
        <mxCell id="jgYm5BDfNLHtk2KfV3pF-32" value="กำหนดตัวเลฃ" style="rounded=0;whiteSpace=wrap;html=1;" vertex="1" parent="1">
          <mxGeometry x="345" y="280" width="110" height="40" as="geometry" />
        </mxCell>
        <mxCell id="jgYm5BDfNLHtk2KfV3pF-44" value="" style="edgeStyle=orthogonalEdgeStyle;rounded=0;orthogonalLoop=1;jettySize=auto;html=1;" edge="1" parent="1" source="jgYm5BDfNLHtk2KfV3pF-36" target="jgYm5BDfNLHtk2KfV3pF-43">
          <mxGeometry relative="1" as="geometry" />
        </mxCell>
        <mxCell id="jgYm5BDfNLHtk2KfV3pF-36" value="คุณทายไม่ถูกคำตอบที่ถูกคือ 3" style="whiteSpace=wrap;html=1;" vertex="1" parent="1">
          <mxGeometry x="550" y="400" width="120" height="60" as="geometry" />
        </mxCell>
        <mxCell id="jgYm5BDfNLHtk2KfV3pF-40" style="edgeStyle=orthogonalEdgeStyle;rounded=0;orthogonalLoop=1;jettySize=auto;html=1;entryX=0.5;entryY=0;entryDx=0;entryDy=0;" edge="1" parent="1" source="jgYm5BDfNLHtk2KfV3pF-38" target="jgYm5BDfNLHtk2KfV3pF-32">
          <mxGeometry relative="1" as="geometry" />
        </mxCell>
        <mxCell id="jgYm5BDfNLHtk2KfV3pF-38" value="3 คือคำตอบ" style="rounded=0;whiteSpace=wrap;html=1;" vertex="1" parent="1">
          <mxGeometry x="350" y="190" width="100" height="50" as="geometry" />
        </mxCell>
        <mxCell id="jgYm5BDfNLHtk2KfV3pF-55" value="" style="edgeStyle=orthogonalEdgeStyle;rounded=0;orthogonalLoop=1;jettySize=auto;html=1;" edge="1" parent="1" source="jgYm5BDfNLHtk2KfV3pF-41" target="jgYm5BDfNLHtk2KfV3pF-54">
          <mxGeometry relative="1" as="geometry" />
        </mxCell>
        <mxCell id="jgYm5BDfNLHtk2KfV3pF-41" value="ยินดีด้วยคุณตอบถูก" style="whiteSpace=wrap;html=1;fontSize=12;" vertex="1" parent="1">
          <mxGeometry x="90" y="390" width="120" height="60" as="geometry" />
        </mxCell>
        <mxCell id="jgYm5BDfNLHtk2KfV3pF-51" value="ใช่" style="edgeStyle=orthogonalEdgeStyle;rounded=0;orthogonalLoop=1;jettySize=auto;html=1;" edge="1" parent="1" source="jgYm5BDfNLHtk2KfV3pF-43" target="jgYm5BDfNLHtk2KfV3pF-50">
          <mxGeometry relative="1" as="geometry" />
        </mxCell>
        <mxCell id="jgYm5BDfNLHtk2KfV3pF-64" value="ไม่" style="edgeStyle=orthogonalEdgeStyle;rounded=0;orthogonalLoop=1;jettySize=auto;html=1;" edge="1" parent="1" source="jgYm5BDfNLHtk2KfV3pF-43" target="jgYm5BDfNLHtk2KfV3pF-45">
          <mxGeometry relative="1" as="geometry" />
        </mxCell>
        <mxCell id="jgYm5BDfNLHtk2KfV3pF-43" value="จะจบเกมหรือไม่" style="rhombus;whiteSpace=wrap;html=1;" vertex="1" parent="1">
          <mxGeometry x="565" y="527.5" width="90" height="85" as="geometry" />
        </mxCell>
        <mxCell id="jgYm5BDfNLHtk2KfV3pF-48" style="edgeStyle=orthogonalEdgeStyle;rounded=0;orthogonalLoop=1;jettySize=auto;html=1;" edge="1" parent="1" source="jgYm5BDfNLHtk2KfV3pF-45">
          <mxGeometry relative="1" as="geometry">
            <mxPoint x="760" y="290" as="targetPoint" />
          </mxGeometry>
        </mxCell>
        <mxCell id="jgYm5BDfNLHtk2KfV3pF-45" value="เริ่มต้นไหม" style="whiteSpace=wrap;html=1;" vertex="1" parent="1">
          <mxGeometry x="700" y="540" width="120" height="60" as="geometry" />
        </mxCell>
        <mxCell id="jgYm5BDfNLHtk2KfV3pF-49" style="edgeStyle=orthogonalEdgeStyle;rounded=0;orthogonalLoop=1;jettySize=auto;html=1;" edge="1" parent="1" target="jgYm5BDfNLHtk2KfV3pF-32">
          <mxGeometry relative="1" as="geometry">
            <mxPoint x="750" y="290" as="sourcePoint" />
            <Array as="points">
              <mxPoint x="560" y="290" />
              <mxPoint x="560" y="290" />
            </Array>
          </mxGeometry>
        </mxCell>
        <mxCell id="jgYm5BDfNLHtk2KfV3pF-66" value="" style="edgeStyle=orthogonalEdgeStyle;rounded=0;orthogonalLoop=1;jettySize=auto;html=1;" edge="1" parent="1" source="jgYm5BDfNLHtk2KfV3pF-50" target="jgYm5BDfNLHtk2KfV3pF-65">
          <mxGeometry relative="1" as="geometry" />
        </mxCell>
        <mxCell id="jgYm5BDfNLHtk2KfV3pF-50" value="จบเกม" style="whiteSpace=wrap;html=1;" vertex="1" parent="1">
          <mxGeometry x="410" y="520" width="120" height="60" as="geometry" />
        </mxCell>
        <mxCell id="jgYm5BDfNLHtk2KfV3pF-57" value="ใช่" style="edgeStyle=orthogonalEdgeStyle;rounded=0;orthogonalLoop=1;jettySize=auto;html=1;" edge="1" parent="1" source="jgYm5BDfNLHtk2KfV3pF-54" target="jgYm5BDfNLHtk2KfV3pF-56">
          <mxGeometry relative="1" as="geometry" />
        </mxCell>
        <mxCell id="jgYm5BDfNLHtk2KfV3pF-63" value="ไม่" style="edgeStyle=orthogonalEdgeStyle;rounded=0;orthogonalLoop=1;jettySize=auto;html=1;" edge="1" parent="1" source="jgYm5BDfNLHtk2KfV3pF-54" target="jgYm5BDfNLHtk2KfV3pF-58">
          <mxGeometry relative="1" as="geometry" />
        </mxCell>
        <mxCell id="jgYm5BDfNLHtk2KfV3pF-54" value="จะจบเกมหรือไม่" style="rhombus;whiteSpace=wrap;html=1;" vertex="1" parent="1">
          <mxGeometry x="105" y="520" width="90" height="85" as="geometry" />
        </mxCell>
        <mxCell id="jgYm5BDfNLHtk2KfV3pF-67" style="edgeStyle=orthogonalEdgeStyle;rounded=0;orthogonalLoop=1;jettySize=auto;html=1;" edge="1" parent="1" source="jgYm5BDfNLHtk2KfV3pF-56" target="jgYm5BDfNLHtk2KfV3pF-65">
          <mxGeometry relative="1" as="geometry" />
        </mxCell>
        <mxCell id="jgYm5BDfNLHtk2KfV3pF-56" value="จบเกม" style="whiteSpace=wrap;html=1;" vertex="1" parent="1">
          <mxGeometry x="260" y="510" width="120" height="60" as="geometry" />
        </mxCell>
        <mxCell id="jgYm5BDfNLHtk2KfV3pF-61" style="edgeStyle=orthogonalEdgeStyle;rounded=0;orthogonalLoop=1;jettySize=auto;html=1;" edge="1" parent="1" source="jgYm5BDfNLHtk2KfV3pF-58">
          <mxGeometry relative="1" as="geometry">
            <mxPoint y="220" as="targetPoint" />
          </mxGeometry>
        </mxCell>
        <mxCell id="jgYm5BDfNLHtk2KfV3pF-58" value="เริ่มต้นใหม่" style="whiteSpace=wrap;html=1;" vertex="1" parent="1">
          <mxGeometry x="-70" y="530" width="120" height="60" as="geometry" />
        </mxCell>
        <mxCell id="jgYm5BDfNLHtk2KfV3pF-62" style="edgeStyle=orthogonalEdgeStyle;rounded=0;orthogonalLoop=1;jettySize=auto;html=1;" edge="1" parent="1" target="jgYm5BDfNLHtk2KfV3pF-38">
          <mxGeometry relative="1" as="geometry">
            <mxPoint x="10" y="220" as="sourcePoint" />
            <Array as="points">
              <mxPoint x="10" y="215" />
            </Array>
          </mxGeometry>
        </mxCell>
        <mxCell id="jgYm5BDfNLHtk2KfV3pF-65" value="จบเกม" style="ellipse;whiteSpace=wrap;html=1;" vertex="1" parent="1">
          <mxGeometry x="330" y="620" width="120" height="60" as="geometry" />
        </mxCell>
      </root>
    </mxGraphModel>
  </diagram>
</mxfile>
